<?xml version="1.0" encoding="UTF-8" standalone="no"?>
<svg
   version="1.1"
   id="Aspose.Tasks"
   x="0px"
   y="0px"
   viewBox="0 0 277 277"
   style="enable-background:new 0 0 277 277;"
   sodipodi:docname="aspose_tasks-for-python_via_NET.svg"
   inkscape:version="1.2.2 (732a01da63, 2022-12-09)"
   xmlns:inkscape="http://www.inkscape.org/namespaces/inkscape"
   xmlns:sodipodi="http://sodipodi.sourceforge.net/DTD/sodipodi-0.dtd"
   xmlns="http://www.w3.org/2000/svg"
   xmlns:svg="http://www.w3.org/2000/svg">
  <defs
     id="defs36" />
  <sodipodi:namedview
     id="namedview34"
     pagecolor="#ffffff"
     bordercolor="#000000"
     borderopacity="0.25"
     inkscape:showpageshadow="2"
     inkscape:pageopacity="0.0"
     inkscape:pagecheckerboard="0"
     inkscape:deskcolor="#d1d1d1"
     showgrid="false"
     inkscape:zoom="0.85198556"
     inkscape:cx="138.5"
     inkscape:cy="138.5"
     inkscape:window-width="1280"
     inkscape:window-height="961"
     inkscape:window-x="-8"
     inkscape:window-y="-8"
     inkscape:window-maximized="1"
     inkscape:current-layer="Aspose.Tasks" />
  <style
     type="text/css"
     id="style20">
	.st0{fill-rule:evenodd;clip-rule:evenodd;fill:#ABC314;}
	.st1{fill-rule:evenodd;clip-rule:evenodd;fill:#FFFFFF;}
</style>
  <g
     id="NET"
     transform="matrix(0.89566888,0,0,0.88262356,0.36615768,32.101446)">
    <g
       id="g28">
      <path
         class="st0"
         d="m 21.65,3.5 235.13,1.25 2.69,0.35 c 2.02,0.23 3.92,0.86 5.71,1.88 5.59,2.83 8.37,7.73 8.33,14.69 l -0.85,159.68 c -0.13,25.6 -9.33,47.33 -27.58,65.2 -18.14,18.1 -39.92,27.07 -65.36,26.94 l -159.5,-0.85 c -2.8,-0.01 -5.6,-0.7 -8.39,-2.07 -5.59,-2.84 -8.36,-7.79 -8.32,-14.86 L 4.75,20.25 C 4.76,17.44 5.51,14.64 6.98,11.84 9.81,6.25 14.7,3.46 21.65,3.5 Z m -6.16,20.18 -1.21,228.73 c 0.09,4.04 1.48,6.69 4.16,7.94 1.68,0.9 3.41,1.42 5.2,1.54 l 112.27,0.6 c -7.7,-4.29 -14.84,-9.83 -21.42,-16.62 -17.94,-18.06 -26.85,-39.89 -26.71,-65.49 0.14,-25.72 9.27,-47.51 27.41,-65.37 17.91,-17.98 39.75,-26.91 65.52,-26.77 25.44,0.13 47.12,9.29 65.07,27.46 6.71,6.71 12.16,13.95 16.36,21.73 L 262.72,25 c -0.09,-4.05 -1.54,-6.74 -4.33,-8.11 -1.01,-0.46 -2.18,-0.79 -3.53,-1.03 L 253.35,15.52 24.95,14.3 c -4.03,0.09 -6.73,1.48 -8.09,4.17 -0.79,1.68 -1.25,3.41 -1.37,5.21 z"
         style="fill:#ffcd38"
         id="path22" />
      <g
         id="g26">
        <path
           class="st0"
           d="m 119.74,47.31 -20.78,20.1 19.51,29.24 -7.4,-0.04 -16.34,-24.51 -7.94,7.87 -0.09,16.51 -6.89,-0.04 0.26,-49.35 6.89,0.04 -0.13,24.42 25.01,-24.29 z m -86.71,-4 0.03,-6.23 46.39,0.25 -0.03,6.23 -18.49,-0.1 -0.28,52.88 -8.24,-0.04 0.28,-52.89 z"
           style="fill:#ffcd38"
           id="path24" />
      </g>
    </g>
    <path
       class="st1"
       d="m 138.75,138.87 -0.44,83.54 83.53,0.44 0.45,-83.54 z m -6.36,89.57 0.51,-95.5 95.3,0.51 -0.51,95.5 z m 83.72,-67.09 -41.9,41.55 -29.59,-29.97 12,-11.89 17.72,17.95 29.91,-29.65 z"
       id="path30" />
  </g>
  <g
     id="g379"
     transform="matrix(0.92530816,0,0,0.93597843,25.706113,0.40300249)">
    <circle
       cx="216.39999"
       cy="56"
       r="55"
       fill="#672572"
       id="circle274" />
    <g
       id="prefix__XMLID_2_">
      <path
         id="prefix__XMLID_3_"
         class="prefix__st0"
         d="m 229.9,42.1 c 0.5,-0.4 0.8,-1 0.8,-1.8 0,-0.7 -0.2,-1.2 -0.6,-1.6 -0.3,-0.3 -0.9,-0.7 -1.6,-0.9 -0.7,-0.3 -1.1,-0.5 -1.3,-0.7 -0.3,-0.2 -0.3,-0.5 -0.3,-0.9 0,-0.3 0.2,-0.7 0.4,-0.9 0.3,-0.3 0.7,-0.3 1.1,-0.3 0.8,0 1.4,0.2 2,0.6 v -1.4 c -0.5,-0.3 -1.2,-0.4 -1.9,-0.4 -0.9,0 -1.6,0.3 -2.2,0.7 -0.6,0.5 -0.9,1.1 -0.9,1.8 0,0.7 0.2,1.2 0.5,1.5 0.3,0.3 0.9,0.7 1.5,0.9 0.7,0.3 1.2,0.6 1.4,0.8 0.3,0.3 0.3,0.5 0.3,0.9 0,0.8 -0.5,1.2 -1.6,1.2 -0.9,0 -1.5,-0.3 -2.2,-0.9 v 1.4 c 0.6,0.3 1.4,0.5 2.1,0.5 1.1,0.3 1.8,0 2.5,-0.5 z"
         style="fill:#ffffff" />
      <path
         id="prefix__XMLID_29_"
         class="prefix__st0"
         d="m 242.8,42.6 h 1.4 v -7.4 h 2 V 34 h -2 v -1.4 c 0,-1.2 0.5,-1.8 1.4,-1.8 0.3,0 0.7,0.1 0.9,0.3 v -1.3 c -0.3,-0.1 -0.6,-0.2 -1,-0.2 -0.8,0 -1.4,0.3 -1.9,0.7 -0.6,0.5 -0.9,1.3 -0.9,2.2 v 1.4 h -1.3 v 1.2 h 1.4 z"
         style="fill:#ffffff" />
      <path
         id="prefix__XMLID_30_"
         class="prefix__st0"
         d="m 198.9,31.8 c 0.3,0 0.4,-0.1 0.7,-0.3 0.2,-0.2 0.3,-0.4 0.3,-0.7 0,-0.3 -0.1,-0.4 -0.3,-0.6 -0.2,-0.2 -0.4,-0.3 -0.7,-0.3 -0.3,0 -0.4,0.1 -0.6,0.3 -0.2,0.2 -0.3,0.4 -0.3,0.6 0,0.3 0.1,0.5 0.3,0.7 0.2,0.2 0.3,0.3 0.6,0.3 z"
         style="fill:#ffffff" />
      <path
         id="prefix__XMLID_31_"
         class="prefix__st0"
         d="m 205.8,42.9 c 0.9,0 1.7,-0.2 2.4,-0.6 V 41 c -0.7,0.5 -1.4,0.8 -2.1,0.8 -0.9,0 -1.6,-0.3 -2.1,-0.9 -0.5,-0.6 -0.8,-1.4 -0.8,-2.4 0,-1 0.3,-1.9 0.9,-2.5 0.5,-0.6 1.3,-0.9 2.1,-0.9 0.8,0 1.4,0.3 2,0.7 v -1.4 c -0.6,-0.3 -1.3,-0.4 -2,-0.4 -1.4,0 -2.5,0.4 -3.2,1.3 -0.9,0.9 -1.2,2 -1.2,3.4 0,1.3 0.3,2.3 1.1,3.1 0.6,0.6 1.6,1.1 2.9,1.1 z"
         style="fill:#ffffff" />
      <path
         id="prefix__XMLID_34_"
         class="prefix__st0"
         d="m 254.8,34.7 h 0.3 c 0.2,0 0.3,0.2 0.5,0.5 l 0.3,0.7 h 0.5 L 256,35.1 c -0.2,-0.3 -0.3,-0.5 -0.5,-0.5 0.3,-0.1 0.4,-0.2 0.5,-0.3 0.2,-0.2 0.2,-0.3 0.2,-0.5 0,-0.3 -0.1,-0.4 -0.3,-0.5 C 255.7,33.1 255.5,33 255,33 h -0.9 v 2.9 h 0.4 v -1.2 z m 0,-1.4 h 0.3 c 0.3,0 0.4,0.1 0.5,0.2 0.1,0.1 0.2,0.2 0.2,0.3 0,0.3 -0.2,0.5 -0.6,0.5 h -0.4 z"
         style="fill:#ffffff" />
      <path
         id="prefix__XMLID_35_"
         class="prefix__st0"
         d="m 248.4,40.3 c 0,1.7 0.8,2.6 2.2,2.6 0.5,0 0.9,-0.1 1.3,-0.3 v -1.2 c -0.3,0.2 -0.5,0.3 -0.9,0.3 -0.4,0 -0.8,-0.1 -1,-0.3 -0.2,-0.3 -0.3,-0.7 -0.3,-1.2 v -4.8 h 2.1 v -1.3 h -2.1 v -2.6 c -0.5,0.2 -0.9,0.3 -1.4,0.4 V 34 h -1.4 v 1.2 h 1.4 z"
         style="fill:#ffffff" />
      <path
         id="prefix__XMLID_40_"
         class="prefix__st0"
         d="m 255.2,36.7 c 0.7,0 1.2,-0.3 1.6,-0.7 0.4,-0.4 0.7,-0.9 0.7,-1.6 0,-0.7 -0.3,-1.2 -0.7,-1.6 -0.4,-0.4 -0.9,-0.6 -1.6,-0.6 -0.7,0 -1.2,0.3 -1.6,0.7 -0.4,0.4 -0.7,1 -0.7,1.6 0,0.7 0.3,1.2 0.7,1.6 0.4,0.5 1,0.6 1.6,0.6 z m -1.3,-3.6 c 0.4,-0.4 0.9,-0.6 1.4,-0.6 0.5,0 1,0.2 1.4,0.6 0.4,0.4 0.6,0.9 0.6,1.4 0,0.5 -0.2,1.1 -0.6,1.4 -0.4,0.4 -0.9,0.6 -1.4,0.6 -0.5,0 -1,-0.2 -1.4,-0.6 -0.4,-0.4 -0.6,-0.9 -0.6,-1.4 0,-0.5 0.1,-1.1 0.6,-1.4 z"
         style="fill:#ffffff" />
      <path
         id="prefix__XMLID_41_"
         class="prefix__st0"
         d="m 198.2,34 h 1.4 v 8.6 h -1.4 z"
         style="fill:#ffffff" />
      <path
         id="prefix__XMLID_44_"
         class="prefix__st0"
         d="m 219.5,42.9 c 1.3,0 2.4,-0.4 3.1,-1.3 0.8,-0.9 1.2,-2 1.2,-3.3 0,-1.3 -0.3,-2.5 -1.1,-3.3 -0.7,-0.8 -1.7,-1.2 -3,-1.2 -1.3,0 -2.4,0.3 -3.1,1.1 -0.9,0.9 -1.3,2 -1.3,3.5 0,1.3 0.3,2.4 1.1,3.1 0.8,0.9 1.8,1.4 3.1,1.4 z m -1.9,-7.1 c 0.5,-0.6 1.2,-0.9 2,-0.9 0.9,0 1.5,0.3 2,0.9 0.5,0.6 0.8,1.4 0.8,2.6 0,1 -0.3,1.9 -0.7,2.5 -0.5,0.6 -1.2,0.9 -2,0.9 -0.9,0 -1.5,-0.3 -2.1,-0.9 -0.5,-0.6 -0.8,-1.4 -0.8,-2.4 0,-1.3 0.2,-2.1 0.8,-2.7 z"
         style="fill:#ffffff" />
      <path
         id="prefix__XMLID_47_"
         class="prefix__st0"
         d="m 239.2,41.6 c 0.8,-0.9 1.2,-2 1.2,-3.3 0,-1.3 -0.3,-2.5 -1.1,-3.3 -0.7,-0.8 -1.7,-1.2 -3,-1.2 -1.3,0 -2.4,0.3 -3.1,1.1 -0.9,0.9 -1.3,2 -1.3,3.5 0,1.3 0.3,2.4 1.1,3.1 0.8,0.9 1.8,1.3 3.1,1.3 1.4,0.1 2.4,-0.4 3.1,-1.2 z m -5.8,-3.3 c 0,-1.1 0.3,-2 0.9,-2.6 0.5,-0.6 1.2,-0.9 2,-0.9 0.9,0 1.5,0.3 2,0.9 0.5,0.6 0.8,1.4 0.8,2.6 0,1 -0.3,1.9 -0.7,2.5 -0.5,0.6 -1.2,0.9 -2,0.9 -0.8,0 -1.5,-0.3 -2.1,-0.9 -0.7,-0.6 -0.9,-1.4 -0.9,-2.5 z"
         style="fill:#ffffff" />
      <path
         id="prefix__XMLID_48_"
         class="prefix__st0"
         d="m 219.1,63.8 h 11.4 V 60.5 H 219.1 V 49.9 h 12.3 v -3.3 h -16.1 v 31.6 h 16.8 v -3.3 h -13 z"
         style="fill:#ffffff" />
      <path
         id="prefix__XMLID_49_"
         class="prefix__st0"
         d="m 235.6,49.9 h 9.1 v 28.3 h 3.7 V 49.9 h 9.1 v -3.3 h -21.9 z"
         style="fill:#ffffff" />
      <path
         id="prefix__XMLID_50_"
         class="prefix__st0"
         d="m 175,73.7 c -0.7,0 -1.3,0.3 -1.7,0.8 -0.5,0.5 -0.7,1.1 -0.7,1.8 0,0.7 0.3,1.3 0.7,1.8 0.5,0.5 1,0.8 1.7,0.8 0.7,0 1.3,-0.3 1.8,-0.8 0.5,-0.5 0.8,-1.1 0.8,-1.8 0,-0.7 -0.3,-1.3 -0.8,-1.8 -0.5,-0.5 -1,-0.8 -1.8,-0.8 z"
         style="fill:#ffffff" />
      <path
         id="prefix__XMLID_51_"
         class="prefix__st0"
         d="m 212.6,34.3 c -0.4,0.3 -0.8,0.9 -0.9,1.4 v -1.8 h -1.4 v 8.6 h 1.4 v -4.3 c 0,-1 0.3,-1.8 0.7,-2.4 0.3,-0.5 0.9,-0.8 1.4,-0.8 0.4,0 0.9,0.1 1,0.3 v -1.4 c -0.2,-0.1 -0.4,-0.1 -0.9,-0.1 -0.4,0 -0.9,0.2 -1.3,0.5 z"
         style="fill:#ffffff" />
      <path
         id="prefix__XMLID_52_"
         class="prefix__st0"
         d="m 184.2,32.2 h 0.1 l 4.4,10.4 h 0.7 l 4.5,-10.4 -0.1,10.4 h 1.5 v -12 h -1.8 l -4.4,9.8 -4.3,-9.8 h -1.9 v 12 h 1.4 z"
         style="fill:#ffffff" />
      <path
         id="prefix__XMLID_53_"
         class="prefix__st0"
         d="M 204.7,73.3 187.8,46.6 h -4.9 v 31.6 h 3.8 V 51.1 l 17.2,27.1 h 4.5 V 46.6 h -3.7 z"
         style="fill:#ffffff" />
    </g>
  </g>
</svg>
